<?xml version="1.0" standalone="no"?>
<!DOCTYPE svg PUBLIC "-//W3C//DTD SVG 20010904//EN"
 "http://www.w3.org/TR/2001/REC-SVG-20010904/DTD/svg10.dtd">
<svg version="1.0" xmlns="http://www.w3.org/2000/svg"
 width="318.000000pt" height="159.000000pt" viewBox="0 0 318.000000 159.000000"
 preserveAspectRatio="xMidYMid meet">

<g transform="translate(0.000000,159.000000) scale(0.100000,-0.100000)"
fill="#000000" stroke="none">
<path d="M825 1268 c-137 -45 -223 -81 -248 -102 -31 -27 -33 -33 -12 -33 8 0
11 5 8 10 -3 6 -1 7 6 3 7 -5 10 -2 9 5 -2 7 2 13 7 14 6 0 25 9 44 19 18 10
30 12 26 6 -5 -9 -1 -10 14 -5 31 9 26 -4 -6 -16 -16 -6 -22 -13 -16 -16 8 -3
1 -14 -19 -31 -17 -14 -48 -48 -69 -75 -50 -63 -51 -52 -1 14 20 27 35 51 32
53 -12 7 23 34 38 30 14 -5 14 -3 -1 6 -15 9 -22 8 -38 -6 -12 -11 -16 -20 -9
-24 6 -4 2 -14 -11 -26 -22 -19 -22 -19 -10 4 6 12 10 22 9 23 -27 7 -40 5
-45 -9 -3 -9 -11 -23 -17 -31 -5 -7 -11 -20 -12 -28 -2 -8 -10 -23 -19 -33
-25 -28 -74 -227 -64 -264 4 -17 28 -80 53 -140 61 -147 119 -205 218 -221 21
-3 51 -17 68 -31 31 -26 51 -30 174 -33 70 -1 66 -13 -7 -23 -43 -5 -40 -6 18
-2 78 4 197 28 177 35 -8 3 8 15 35 27 26 13 66 32 88 44 l40 21 -23 -23 c-13
-12 -21 -25 -18 -28 8 -7 57 39 51 48 -3 4 3 14 13 21 15 13 16 12 3 -3 -8
-11 -9 -18 -3 -18 12 0 27 19 27 34 0 5 7 11 15 13 13 4 13 3 0 -6 -8 -6 -11
-11 -6 -11 5 0 25 17 45 39 20 21 41 40 46 42 16 7 115 126 115 140 0 7 3 10
6 7 3 -3 19 7 35 23 33 33 41 36 33 14 -4 -8 1 -17 10 -21 9 -3 16 -11 16 -17
0 -13 96 -126 125 -147 11 -8 37 -30 57 -48 21 -19 42 -31 48 -27 5 3 7 0 4
-8 -3 -8 3 -20 13 -28 16 -13 17 -12 4 4 -19 24 -4 21 54 -9 58 -31 84 -53 63
-55 -7 -1 16 -7 52 -14 36 -7 69 -10 74 -8 4 3 43 5 85 4 94 -1 140 7 120 21
-11 8 -10 8 4 4 10 -3 25 -6 33 -6 9 0 13 -5 9 -12 -4 -7 -1 -6 7 2 7 9 39 29
70 44 32 16 66 38 75 49 17 19 16 19 -13 -1 -18 -12 -54 -31 -80 -42 l-49 -20
30 25 c17 14 34 25 38 25 5 0 20 9 34 20 38 30 23 25 -63 -22 l-77 -41 -118 0
c-117 0 -117 0 -206 41 -79 38 -85 39 -55 15 32 -27 32 -28 8 -28 -13 0 -22 3
-20 7 2 3 -12 12 -31 18 -19 6 -56 32 -82 56 -27 25 -41 42 -33 38 8 -3 -20
27 -62 68 -73 71 -83 85 -79 116 1 6 -2 12 -7 12 -5 0 -17 15 -27 33 l-18 34
28 31 c15 17 31 30 34 27 4 -2 13 6 20 18 11 18 11 20 0 10 -22 -21 -31 -15
-15 9 9 12 16 30 16 39 0 9 7 20 16 23 15 6 15 4 3 -11 -8 -10 12 6 45 35 32
29 61 51 63 48 3 -3 12 1 20 9 17 17 33 19 33 5 0 -5 -4 -10 -9 -10 -5 0 -12
-7 -15 -15 -3 -9 30 21 74 65 44 45 84 79 90 75 6 -3 26 3 45 15 23 14 42 19
57 15 22 -7 22 -6 4 7 -17 14 -17 15 -2 21 11 4 15 3 10 -4 -4 -7 1 -7 15 1
21 11 122 9 222 -3 41 -5 103 -35 145 -70 51 -42 71 -39 24 4 -65 60 -88 73
-134 77 -23 2 -86 7 -141 11 l-100 8 95 -2 c52 -1 110 -4 128 -7 39 -5 30 5
-19 21 -61 19 -282 11 -249 -9 8 -5 5 -9 -9 -13 -13 -3 -19 -1 -15 5 7 10 -16
8 -70 -9 -13 -4 -16 -2 -10 8 4 7 -12 1 -37 -13 -24 -14 -62 -35 -84 -47 -22
-11 -54 -33 -71 -48 -16 -16 -23 -23 -15 -17 38 26 44 25 17 -5 -19 -20 -36
-29 -47 -26 -10 3 -21 0 -25 -6 -5 -9 -2 -10 12 -5 10 4 2 -8 -20 -26 -71 -61
-136 -130 -136 -145 0 -8 5 -11 13 -7 7 4 9 3 4 -2 -5 -5 -12 -9 -15 -9 -4 0
-13 -4 -19 -8 -9 -6 -11 -3 -6 10 6 15 4 16 -8 6 -13 -10 -24 1 -68 66 -44 65
-161 196 -136 152 5 -9 3 -12 -6 -9 -8 3 -14 11 -14 19 -1 8 -6 13 -13 11 -7
-1 -12 2 -12 7 0 14 -143 67 -169 62 -7 -1 -10 2 -7 7 11 19 -60 34 -182 38
-68 3 -122 2 -119 -3 3 -4 -11 -8 -30 -9 -32 -1 -34 1 -17 13 10 8 49 14 93
15 l76 1 -60 6 c-43 5 -53 8 -35 12 19 5 20 6 5 7 -11 0 -47 -9 -80 -20z m-49
-43 c-10 -8 -24 -11 -29 -8 -6 4 -2 10 9 14 31 12 40 9 20 -6z m304 -3 c0 -5
-13 -7 -30 -4 -16 2 -30 6 -30 8 0 2 14 4 30 4 17 0 30 -4 30 -8z m1007 2 c-3
-3 -12 -4 -19 -1 -8 3 -5 6 6 6 11 1 17 -2 13 -5z m-10 -34 c-27 -22 -42 -26
-32 -10 3 6 4 10 1 10 -10 0 -95 -68 -90 -72 2 -3 -10 -17 -26 -33 -17 -16
-30 -24 -30 -18 0 6 12 18 26 28 14 9 24 19 21 22 -6 5 -82 -42 -92 -57 -3 -6
-10 -8 -15 -5 -5 3 -12 0 -17 -7 -4 -7 -21 -24 -37 -38 -28 -24 -28 -24 -17
-3 30 58 249 201 285 187 8 -3 17 -1 21 5 3 6 11 11 17 11 6 0 -1 -9 -15 -20z
m-905 -36 c33 -19 66 -34 73 -34 15 0 98 -66 104 -83 2 -6 -5 -8 -18 -4 -11 3
-19 1 -15 -4 3 -5 11 -9 17 -9 17 0 129 -89 123 -98 -2 -4 2 -18 11 -32 8 -14
12 -17 9 -7 -5 14 -2 16 12 8 18 -9 46 -80 37 -90 -3 -2 -5 1 -5 7 0 7 -5 12
-11 12 -6 0 -9 -6 -6 -12 12 -35 18 -62 9 -50 -7 11 -10 10 -16 -3 -3 -9 -11
-13 -17 -9 -8 4 -9 3 -5 -5 4 -7 -32 -48 -93 -107 -55 -53 -99 -101 -98 -107
1 -7 -5 -12 -13 -12 -23 -1 -61 -25 -55 -35 7 -12 -59 -46 -105 -54 -28 -5
-31 -4 -15 4 18 9 17 10 -5 5 -14 -3 -93 -9 -177 -12 -179 -7 -175 -8 -295
114 -91 94 -108 137 -108 280 0 91 1 93 31 120 17 16 38 42 46 58 8 17 38 54
67 84 35 37 43 50 26 41 -23 -12 -24 -11 -9 5 14 14 21 15 39 5 12 -6 24 -9
28 -6 3 3 0 6 -6 6 -7 0 -12 7 -12 15 0 15 42 31 58 21 5 -3 15 1 22 9 11 13
39 15 163 14 l149 -1 60 -34z m29 19 c13 -15 12 -15 -8 -4 -24 12 -29 21 -14
21 5 0 15 -7 22 -17z m153 -78 c14 -10 26 -22 26 -28 0 -5 -8 -3 -18 6 -10 10
-23 17 -28 17 -5 0 7 -13 26 -28 19 -15 39 -27 45 -27 5 0 10 -7 11 -15 2 -30
4 -35 12 -24 5 8 13 3 26 -14 11 -15 13 -22 5 -16 -8 4 -19 9 -25 10 -15 2
-109 104 -109 118 0 6 -5 11 -12 11 -6 0 -15 3 -19 7 -13 13 34 0 60 -17z
m-704 -10 c-7 -9 -15 -13 -19 -10 -3 3 1 10 9 15 21 14 24 12 10 -5z m-112
-15 c-7 -10 -14 -17 -17 -15 -4 4 18 35 25 35 2 0 -1 -9 -8 -20z m70 -19 c-7
-12 -16 -21 -21 -21 -8 0 -2 14 16 38 16 20 20 6 5 -17z m861 -23 c22 -29 44
-64 50 -78 6 -14 20 -39 31 -57 14 -24 15 -31 5 -26 -8 3 -15 10 -15 17 -1 6
-14 26 -30 45 -16 19 -27 38 -24 43 3 4 -18 31 -46 58 -41 40 -47 50 -31 50
13 0 35 -19 60 -52z m-909 -57 c-22 -32 -30 -38 -30 -22 0 12 41 63 47 57 3
-3 -5 -19 -17 -35z m-74 3 c-4 -9 -9 -15 -11 -12 -3 3 -3 13 1 22 4 9 9 15 11
12 3 -3 3 -13 -1 -22z m1204 -28 c0 -2 -8 -10 -17 -17 -16 -13 -17 -12 -4 4
13 16 21 21 21 13z m-1217 -26 c-5 -19 -23 -39 -23 -25 0 9 20 45 24 45 2 0 2
-9 -1 -20z m16 -137 c1 -28 -3 -54 -8 -57 -20 -12 -28 59 -14 125 7 33 7 33
14 9 4 -14 7 -48 8 -77z m1141 62 c-7 -9 -15 -13 -18 -10 -3 2 1 11 8 20 7 9
15 13 18 10 3 -2 -1 -11 -8 -20z m-1182 -115 c1 -23 0 -23 -8 -5 -5 11 -8 36
-8 55 l0 35 8 -30 c4 -16 8 -41 8 -55z m1094 1 c-18 -22 -32 -46 -32 -53 0 -7
10 -2 21 12 l21 25 -19 -33 c-23 -42 -54 -71 -33 -32 l13 25 -23 -20 c-23 -19
-23 -19 -16 -1 4 11 2 22 -4 26 -7 5 -6 11 5 20 13 11 15 10 9 -4 -3 -9 -1
-16 5 -16 6 0 11 6 11 13 0 15 62 89 69 82 2 -3 -10 -23 -27 -44z m128 -15
c-1 -6 -10 0 -20 13 -11 13 -20 28 -20 35 1 6 10 0 20 -13 11 -13 20 -28 20
-35z m-273 -84 c-28 -29 -36 -48 -14 -36 6 4 4 -2 -7 -14 -10 -12 -22 -20 -25
-18 -4 3 -18 -5 -31 -16 -21 -17 -22 -19 -5 -14 15 4 12 -1 -10 -20 -22 -20
-25 -25 -10 -20 14 4 12 -1 -10 -19 -16 -14 -34 -25 -40 -25 -5 0 1 9 15 20
14 11 21 20 16 20 -5 0 -1 9 9 20 10 11 14 20 9 20 -4 0 21 29 56 65 35 36 67
65 69 65 3 0 -7 -13 -22 -28z m36 1 c-6 -16 -5 -16 10 -4 26 21 20 0 -9 -34
-18 -21 -24 -24 -19 -10 4 11 8 29 10 40 3 23 4 25 10 25 2 0 1 -8 -2 -17z
m351 -62 c16 -17 27 -33 25 -36 -3 -2 -30 21 -60 52 -34 35 -43 48 -24 35 17
-11 43 -34 59 -51z m-1270 16 c1 -7 10 -26 19 -44 9 -18 17 -36 17 -40 0 -13
-40 53 -45 74 -2 10 -6 27 -10 38 -6 19 -6 19 5 2 7 -11 13 -24 14 -30z m20
17 c3 -8 2 -12 -4 -9 -6 3 -10 10 -10 16 0 14 7 11 14 -7z m841 -68 c-14 -19
-34 -37 -43 -41 -10 -4 -5 7 13 27 52 57 69 65 30 14z m-750 -36 c10 -11 16
-20 13 -20 -3 0 -13 9 -23 20 -10 11 -16 20 -13 20 3 0 13 -9 23 -20z m45 -66
c0 -3 -10 2 -23 11 -13 8 -26 13 -29 10 -3 -3 -11 1 -18 10 -7 8 -9 15 -5 15
4 0 1 8 -6 17 -8 10 7 0 34 -21 26 -21 47 -40 47 -42z m580 61 c-7 -8 -17 -15
-23 -15 -6 0 -2 7 9 15 25 19 30 19 14 0z m-242 -92 c-26 -2 -71 -2 -100 0
-29 2 -8 3 47 3 55 0 79 -1 53 -3z m168 -8 c-11 -8 -29 -15 -40 -14 -17 0 -15
3 9 14 39 18 55 18 31 0z m919 4 c16 -7 13 -8 -13 -4 -20 3 -31 1 -27 -5 3 -6
13 -10 22 -10 9 0 13 -3 10 -7 -4 -3 -18 0 -32 7 -19 10 -22 16 -13 22 16 10
28 9 53 -3z m-1020 -19 c-11 -5 -27 -9 -35 -9 -13 -1 -13 0 0 9 8 5 24 9 35 9
l20 0 -20 -9z m-135 -10 c61 -1 70 -3 50 -12 -32 -13 -148 -4 -163 12 -10 10
-7 11 13 6 14 -3 59 -6 100 -6z m1338 3 c-10 -2 -26 -2 -35 0 -10 3 -2 5 17 5
19 0 27 -2 18 -5z m-1178 -17 c-21 -19 -65 -32 -55 -16 6 9 -1 11 -26 6 -29
-5 -30 -5 -11 4 13 5 34 7 47 4 12 -3 26 -1 29 5 4 6 12 11 19 11 7 0 6 -5 -3
-14z m-270 -6 c11 -8 7 -9 -15 -4 -37 8 -45 14 -19 14 10 0 26 -5 34 -10z"/>
<path d="M1151 1147 c2 -2 18 -11 34 -21 l30 -17 -24 20 c-13 12 -28 21 -34
21 -6 0 -8 -1 -6 -3z"/>
<path d="M1260 1081 c34 -29 49 -34 35 -12 -3 6 -21 18 -38 27 l-32 15 35 -30z"/>
<path d="M1180 470 c-9 -6 -10 -10 -3 -10 6 0 15 5 18 10 8 12 4 12 -15 0z"/>
<path d="M958 1283 c6 -2 18 -2 25 0 6 3 1 5 -13 5 -14 0 -19 -2 -12 -5z"/>
<path d="M1006 1265 c4 -8 16 -15 28 -15 21 1 21 1 2 15 -25 19 -37 19 -30 0z"/>
<path d="M2253 1203 c9 -2 23 -2 30 0 6 3 -1 5 -18 5 -16 0 -22 -2 -12 -5z"/>
<path d="M635 1170 c-3 -6 1 -7 9 -4 18 7 21 14 7 14 -6 0 -13 -4 -16 -10z"/>
<path d="M1825 978 l-30 -31 33 22 c17 12 32 27 32 32 0 12 0 12 -35 -23z"/>
<path d="M1619 933 c-13 -16 -12 -17 4 -4 16 13 21 21 13 21 -2 0 -10 -8 -17
-17z"/>
<path d="M1754 926 c-10 -8 -17 -17 -14 -19 3 -3 16 3 29 14 27 22 15 26 -15
5z"/>
<path d="M2646 581 c-9 -16 -35 -46 -58 -66 -24 -21 -34 -35 -23 -30 11 4 26
8 33 9 7 1 11 5 10 8 -2 3 4 14 13 24 19 22 52 84 45 84 -3 0 -12 -13 -20 -29z"/>
<path d="M1850 566 c0 -2 8 -10 18 -17 15 -13 16 -12 3 4 -13 16 -21 21 -21
13z"/>
<path d="M1860 520 c34 -28 60 -42 60 -33 0 4 -15 17 -33 28 -46 28 -56 30
-27 5z"/>
<path d="M1800 466 c0 -2 7 -7 16 -10 8 -3 12 -2 9 4 -6 10 -25 14 -25 6z"/>
<path d="M1920 400 c0 -4 11 -11 24 -14 13 -3 32 -9 43 -13 10 -3 15 -2 10 2
-11 13 -77 34 -77 25z"/>
<path d="M833 313 c9 -2 23 -2 30 0 6 3 -1 5 -18 5 -16 0 -22 -2 -12 -5z"/>
</g>
</svg>
