<?xml version="1.0" standalone="no"?>
<!DOCTYPE svg PUBLIC "-//W3C//DTD SVG 20010904//EN"
 "http://www.w3.org/TR/2001/REC-SVG-20010904/DTD/svg10.dtd">
<svg version="1.0" xmlns="http://www.w3.org/2000/svg"
 width="225.000000pt" height="225.000000pt" viewBox="0 0 225.000000 225.000000"
 preserveAspectRatio="xMidYMid meet">

<g transform="translate(0.000000,225.000000) scale(0.100000,-0.100000)"
fill="#000000" stroke="none">
<path d="M840 971 c0 -170 -1 -179 -20 -184 -17 -4 -20 -14 -20 -61 l0 -56
325 0 325 0 0 56 c0 47 -3 57 -20 61 -19 5 -20 14 -20 184 l0 179 -285 0 -285
0 0 -179z m339 33 c26 -33 26 -54 1 -87 -14 -18 -20 -40 -20 -76 l0 -51 -35 0
-35 0 0 51 c0 36 -6 58 -20 76 -25 33 -25 54 1 87 15 19 30 26 54 26 24 0 39
-7 54 -26z"/>
</g>
</svg>
