<?xml version="1.0" standalone="no"?>
<!DOCTYPE svg PUBLIC "-//W3C//DTD SVG 20010904//EN"
 "http://www.w3.org/TR/2001/REC-SVG-20010904/DTD/svg10.dtd">
<svg version="1.0" xmlns="http://www.w3.org/2000/svg"
 width="269.000000pt" height="188.000000pt" viewBox="0 0 269.000000 188.000000"
 preserveAspectRatio="xMidYMid meet">

<g transform="translate(0.000000,188.000000) scale(0.100000,-0.100000)"
fill="#000000" stroke="none">
<path d="M1454 1675 c-8 -21 5 -40 19 -26 6 6 21 11 34 11 16 0 21 4 17 15 -8
19 -63 20 -70 0z"/>
<path d="M1640 1636 c0 -2 8 -10 18 -17 15 -13 16 -12 3 4 -13 16 -21 21 -21
13z"/>
<path d="M1338 1572 l-48 -16 0 -68 c0 -54 3 -68 15 -68 11 0 15 12 15 50 0
43 3 52 23 59 16 6 23 5 25 -5 2 -8 12 -14 23 -14 17 0 19 -7 19 -59 0 -59 0
-60 -31 -63 -26 -2 -33 -9 -44 -40 -7 -21 -20 -49 -29 -62 l-16 -25 -72 22
c-95 27 -122 28 -126 2 -2 -15 -1 -17 6 -6 8 12 27 7 105 -27 52 -23 99 -42
105 -42 6 0 27 27 47 59 l36 60 67 -23 67 -22 34 -97 c26 -75 37 -97 52 -97
10 0 21 5 25 12 5 8 2 9 -9 5 -18 -7 -17 -12 -42 118 -9 43 -20 84 -25 90 -6
7 -28 18 -50 25 -23 7 -43 17 -46 22 -6 9 35 126 47 134 5 3 21 -2 36 -10 26
-14 30 -13 55 11 23 22 30 24 43 13 13 -11 19 -10 33 5 16 18 16 18 -1 5 -16
-12 -23 -9 -59 26 -23 21 -36 31 -28 21 11 -15 11 -20 -3 -34 -15 -16 -20 -15
-59 14 -24 16 -49 28 -55 26 -7 -3 -13 0 -13 6 0 16 -67 12 -122 -7z"/>
<path d="M1699 1578 c7 -9 9 -23 5 -30 -6 -10 -4 -11 7 0 11 10 10 15 -6 30
-17 15 -18 15 -6 0z"/>
<path d="M1333 1075 c-231 -63 -382 -289 -344 -518 32 -191 164 -332 356 -382
74 -19 123 -19 204 0 172 41 312 179 350 346 23 99 7 229 -40 322 -12 23 -48
69 -81 103 -116 121 -288 171 -445 129z m248 -110 c65 -22 140 -84 176 -144
84 -140 62 -334 -51 -446 -81 -80 -130 -100 -256 -100 -92 0 -112 3 -160 26
-70 33 -132 95 -167 167 -25 52 -28 67 -28 167 0 100 2 115 27 160 84 159 279
231 459 170z"/>
<path d="M1430 955 c0 -10 7 -15 18 -13 21 4 19 22 -2 26 -10 2 -16 -3 -16
-13z"/>
<path d="M1533 738 l-83 -83 -53 53 c-29 28 -60 52 -70 52 -30 0 -18 -36 26
-77 23 -21 50 -51 60 -66 21 -33 54 -35 66 -4 5 12 43 56 85 97 70 69 94 110
63 110 -6 0 -49 -37 -94 -82z m-73 -106 c0 -13 -12 -22 -22 -16 -10 6 -1 24
13 24 5 0 9 -4 9 -8z"/>
<path d="M1100 625 c0 -10 7 -15 18 -13 21 4 19 22 -2 26 -10 2 -16 -3 -16
-13z"/>
<path d="M1760 625 c0 -8 7 -15 15 -15 8 0 15 7 15 15 0 8 -7 15 -15 15 -8 0
-15 -7 -15 -15z"/>
<path d="M1435 310 c-7 -12 2 -30 16 -30 12 0 12 27 0 35 -5 3 -12 1 -16 -5z"/>
<path d="M650 870 c0 -6 68 -10 185 -10 117 0 185 4 185 10 0 6 -68 10 -185
10 -117 0 -185 -4 -185 -10z"/>
<path d="M720 750 c0 -6 33 -10 80 -10 47 0 80 4 80 10 0 6 -33 10 -80 10 -47
0 -80 -4 -80 -10z"/>
<path d="M770 665 c0 -13 13 -15 85 -13 48 2 85 7 85 13 0 6 -37 11 -85 13
-72 2 -85 0 -85 -13z"/>
<path d="M635 580 c-4 -6 27 -10 84 -10 54 0 91 4 91 10 0 6 -35 10 -84 10
-47 0 -88 -4 -91 -10z"/>
<path d="M737 504 c-20 -20 3 -24 106 -22 66 2 112 7 112 13 0 11 -207 20
-218 9z"/>
<path d="M600 380 c0 -6 58 -10 155 -10 97 0 155 4 155 10 0 6 -58 10 -155 10
-97 0 -155 -4 -155 -10z"/>
</g>
</svg>
